# xmcd
#
# Track frame offsets: 
#        150
#        18384
#        35023
#        47481
#        61631
#        75282
#        91893
#        106541
#        121091
#        132941
#        146141
#        163170
#        176153
#        192918
#        211164
#        223225
#        233821
#        256288
#        275377
#        302293
#        312763
#        327569
#        343251
#
# Disc length: 4771 seconds
#
# Revision: 0
# Processed by: cddbd v1.5.2PL0 Copyright (c) Steve Scherf et al.
# Submitted via: ExactAudioCopy v1.3
#
DISCID=3e12a117
DTITLE=Various Artist - Akella Presents - vol. 182 - Rockin' Rollers 
DTITLE=Blues  CD2
DYEAR=2019
DGENRE=Rock and Roll
TTITLE0=Kerry Kearney - Goin' To The Mardi Gras
TTITLE1=Steve Gannon Band - Back In The U.S.A.
TTITLE2=Ghost Riders - Fried Chicken Baby
TTITLE3=George Bedard - I'm Comin' Home
TTITLE4=Johnny And The Headhunters - Rock Em Dead
TTITLE5=Trampled Under Foot - I Gotta Go
TTITLE6=The Shadows - Poison Girl
TTITLE7=The Insomniacs - She Can Talk
TTITLE8=Mojo Martin - Knotty Pine
TTITLE9=The Jimmys - She's Wild
TTITLE10=Cadillac Pete and The Heat - Born In Chicago
TTITLE11=RoosterHouse Gumbo Band - Fishballs
TTITLE12=Dickie Peltier - Patty Cakes
TTITLE13=Harpdog Brown - Oh Little Sarah
TTITLE14=Lol Goodman Band - LBD
TTITLE15=The 44 Dealers - Lonesome
TTITLE16=Dana Gillespie - Mama, He Treats Your Daughter Mean
TTITLE17=Mick Clarke - Careless Love
TTITLE18=Tota Blues - Good Morning Little School Girl
TTITLE19=Lindsay Beaver - Mean To Me
TTITLE20=Sidetrackers - Rock This House
TTITLE21=Built For Comfort Blues Band - What I'm Going Through
TTITLE22=Dry Riverbed Trio - Chained and Bound
EXTD=
EXTT0=
EXTT1=
EXTT2=
EXTT3=
EXTT4=
EXTT5=
EXTT6=
EXTT7=
EXTT8=
EXTT9=
EXTT10=
EXTT11=
EXTT12=
EXTT13=
EXTT14=
EXTT15=
EXTT16=
EXTT17=
EXTT18=
EXTT19=
EXTT20=
EXTT21=
EXTT22=
PLAYORDER=
